<?xml version="1.0" encoding="utf-8"?><svg viewBox="0 0 48 20" xmlns="http://www.w3.org/2000/svg" xmlns:xlink="http://www.w3.org/1999/xlink"><style>:root>svg{display:none}:root>svg:target{display:block}</style><svg viewBox="0 0 48 20" id="arrow" xmlns="http://www.w3.org/2000/svg"><g clip-path="url(#aclip0_800_104)"><rect x="48" width="20" height="48" rx="10" transform="rotate(90 48 0)"/><path d="M34 0v0c0 5.523 4.477 10 10 10v0M33.875 20v0c0-5.523 4.477-10 10-10H44h-54" stroke-width="2"/></g><defs><clipPath id="aclip0_800_104"><rect x="48" width="20" height="48" rx="10" transform="rotate(90 48 0)"/></clipPath></defs></svg><svg viewBox="0 0 48 20" id="next" xmlns="http://www.w3.org/2000/svg"><g clip-path="url(#bclip0_800_298)" stroke-width="2"><path d="M34 0v0c0 5.523 4.477 10 10 10v0M33.875 20v0c0-5.523 4.477-10 10-10H44h-54"/></g><defs><clipPath id="bclip0_800_298"><rect x="48" width="20" height="48" rx="10" transform="rotate(90 48 0)"/></clipPath></defs></svg><svg viewBox="0 0 44 20" id="prev" xmlns="http://www.w3.org/2000/svg"><g clip-path="url(#cclip0_800_295)"><rect width="20" height="44" rx="10" transform="matrix(0 1 1 0 0 0)"/><path d="M10 0v0c0 5.523-4.477 10-10 10v0M10.125 20v0c0-5.523-4.477-10-10-10H0h54" stroke-width="2"/></g><defs><clipPath id="cclip0_800_295"><rect width="20" height="44" rx="10" transform="matrix(0 1 1 0 0 0)"/></clipPath></defs></svg></svg>